<?xml version="1.0" standalone="no"?>
<!DOCTYPE svg PUBLIC "-//W3C//DTD SVG 20010904//EN"
 "http://www.w3.org/TR/2001/REC-SVG-20010904/DTD/svg10.dtd">
<svg version="1.0" xmlns="http://www.w3.org/2000/svg"
 width="1000.000000pt" height="500.000000pt" viewBox="0 0 1000.000000 500.000000"
 preserveAspectRatio="xMidYMid meet">
<g transform="translate(0.000000,500.000000) scale(0.100000,-0.100000)"
fill="#000000" stroke="none">
<path d="M3797 3862 c-15 -17 -17 -65 -17 -480 0 -404 -2 -462 -15 -462 -10 0 
-15 -10 -15 -31 0 -24 -3 -29 -12 -22 -8 6 -100 7 -243 2 -217 -7 -230 -8 
-244 -28 -17 -26 -47 -27 -61 -2 -11 21 -60 27 -282 34 -103 4 -107 3 -117 
-20 -15 -33 -58 -31 -72 3 -9 25 -12 26 -56 20 -25 -3 -114 -6 -198 -6 l-152 
0 -11 -25 c-6 -14 -19 -25 -27 -25 -8 0 -21 11 -27 25 l-11 25 -184 0 c-172 0 
-184 -1 -195 -20 -16 -26 -44 -26 -58 0 -10 19 -18 19 -203 13 l-192 -6 -27 
-28 c-15 -16 -33 -29 -40 -29 -7 0 -44 13 -83 29 l-70 28 -321 6 c-346 5 -685 
-1 -706 -14 -9 -6 -15 -51 -20 -151 -4 -79 -12 -163 -17 -188 -16 -71 -13 
-279 4 -336 8 -27 15 -83 15 -125 0 -59 4 -82 18 -99 17 -21 21 -22 86 -12 61 
10 71 9 92 -7 34 -27 232 -34 573 -21 269 10 285 12 331 35 27 14 51 29 55 35 
12 19 49 10 70 -17 22 -26 22 -26 211 -34 180 -7 190 -7 203 12 18 25 43 24 
59 -1 12 -20 19 -20 200 -14 171 6 188 8 205 26 19 23 19 23 36 -9 12 -23 14 
-23 211 -23 189 0 200 1 210 20 14 26 52 26 68 0 11 -18 23 -20 110 -20 53 0 
141 3 195 7 91 6 98 7 103 30 8 29 50 32 59 4 5 -17 20 -20 118 -26 62 -4 172 
-5 245 -3 l132 3 0 -27 c0 -18 5 -28 15 -28 13 0 15 -37 15 -276 l0 -275 37 
-15 c40 -17 99 -13 133 9 19 11 20 25 20 274 l0 263 336 0 c361 0 406 -5 453 
-49 l28 -26 1669 7 c1656 8 1936 13 2109 43 268 46 626 159 835 264 137 68 
510 288 510 300 0 3 -150 41 -332 83 -234 54 -615 128 -1279 248 -911 164 
-951 170 -1078 170 l-132 0 22 -29 c25 -34 20 -76 -11 -86 -29 -9 -52 8 -79 
58 l-24 44 -111 6 c-61 3 -112 4 -114 2 -2 -1 8 -15 22 -30 40 -43 29 -105 
-19 -105 -25 0 -43 19 -87 94 l-28 46 -99 0 -99 0 9 -37 c13 -58 11 -71 -16 
-89 -20 -13 -30 -14 -59 -4 -30 10 -38 20 -58 71 l-23 59 -97 0 c-54 0 -98 -3 
-98 -6 0 -3 9 -17 20 -31 25 -33 25 -63 0 -91 -31 -33 -59 -16 -100 61 l-35 
67 -113 0 -113 0 26 -37 c14 -21 25 -47 25 -59 0 -41 -64 -72 -87 -41 -5 6 
-20 38 -34 69 l-24 58 -107 0 c-60 0 -108 -3 -108 -6 0 -3 10 -20 22 -36 23 
-33 18 -72 -13 -91 -27 -17 -47 -1 -80 65 -17 35 -32 64 -33 65 -4 5 -218 24 
-222 20 -3 -3 4 -24 16 -47 26 -51 20 -87 -14 -96 -38 -9 -72 21 -102 92 l-28 
64 -46 0 c-25 0 -103 3 -175 7 l-130 6 18 -24 c31 -42 55 -100 50 -120 -6 -23 
-9 -25 -48 -33 -29 -6 -31 -5 -60 61 -16 37 -45 85 -63 105 l-34 38 -278 0 
-277 0 -7 53 c-3 28 -6 169 -6 313 0 143 -3 322 -7 397 l-6 135 -43 11 c-58 
15 -68 14 -87 -7z m4257 -1343 c42 -50 30 -134 -26 -173 -31 -22 -236 -23 
-278 -1 -67 35 -76 123 -18 177 30 28 31 28 163 28 l133 0 26 -31z"/>
</g>
</svg>
